<svg id="Layer_1" data-name="Layer 1" xmlns="http://www.w3.org/2000/svg" viewBox="0 0 122.88 66.68"><defs><style>.cls-1{fill-rule:evenodd;}</style></defs><title>camera-drone</title><path class="cls-1" d="M2.62,3.56H15.36V1.93A1.93,1.93,0,0,1,17.29,0h0a1.94,1.94,0,0,1,1.93,1.93V3.56H32c1.44,0,2.62,1.6,2.62,3h0c0,1.44-1.18,3-2.62,3H19.22v3a2.4,2.4,0,0,1,2.11,2.37v5.49H40.11V13.43a2.79,2.79,0,0,1,2.78-2.78H80a2.79,2.79,0,0,1,2.78,2.78v7.11h18.78V15.05a2.4,2.4,0,0,1,2.11-2.37v-3H90.92c-1.44,0-2.62-1.6-2.62-3h0c0-1.44,1.18-3,2.62-3h12.74V1.93A1.94,1.94,0,0,1,105.59,0h0a1.94,1.94,0,0,1,1.93,1.93V3.56h12.74c1.44,0,2.62,1.6,2.62,3h0c0,1.44-1.18,3-2.62,3H107.52v3a2.39,2.39,0,0,1,2.11,2.37v16.2a2.39,2.39,0,0,1-2.38,2.39h-3.31a2.4,2.4,0,0,1-2.39-2.39V28.47H80.06c-.25.27-.49.54-.71.81a19.76,19.76,0,0,0-1.51,2,36.36,36.36,0,0,1,16.88,12,32,32,0,0,1,6.42,19.79,3.62,3.62,0,0,1-7.24,0A25,25,0,0,0,89,47.62a29.35,29.35,0,0,0-13.71-9.56c-.37,1.91-.58,3.93-.92,6.2-.3,2.07-1.71,3.8-3.79,3.8H52.78c-2.09,0-3.49-1.73-3.8-3.8-.35-2.4-.55-4.44-.95-6.35a29.58,29.58,0,0,0-13.9,9.43A24.86,24.86,0,0,0,29,63.06a3.62,3.62,0,0,1-7.24,0,32,32,0,0,1,6.71-20.19A36.67,36.67,0,0,1,45.22,31.25c-.29-.41-.6-.83-.95-1.26s-.88-1-1.36-1.54v0H21.33v2.78a2.4,2.4,0,0,1-2.39,2.39H15.63a2.39,2.39,0,0,1-2.38-2.39V15.05a2.39,2.39,0,0,1,2.11-2.37v-3H2.62C1.18,9.64,0,8,0,6.6H0c0-1.44,1.18-3,2.62-3ZM61.44,22.79a4.59,4.59,0,1,1-4.58,4.59,4.59,4.59,0,0,1,4.58-4.59Zm0-5.92a10.51,10.51,0,1,1-10.5,10.51,10.51,10.51,0,0,1,10.5-10.51Z"/></svg>